# xmcd CD database file
#
# Track frame offsets:
#	150
#	21890
#	41877
#	60620
#	80707
#	103027
#	121815
#	140547
#	157985
#	177620
#	195777
#	217697
#	241677
#	266942
#	283800
#
# Disc length: 4083 seconds
#
# Revision: 1
# Processed by: cddbd v1.5.2PL0 Copyright (c) Steve Scherf et al.
# Submitted via: CDex 1.70beta2
#
DISCID=d30ff10f
DTITLE=萬芳 - 萬芳
DYEAR=2000
DGENRE=Pop
TTITLE0=溫哥華悲傷一號
TTITLE1=放逐
TTITLE2=一切如新
TTITLE3=新不了情
TTITLE4=守夜人
TTITLE5=就值得了愛
TTITLE6=睡醒
TTITLE7=心牆
TTITLE8=我記得你眼裡的依戀
TTITLE9=習慣寂寞
TTITLE10=猜心
TTITLE11=桂花釀
TTITLE12=思念
TTITLE13=我願意
TTITLE14=分手 
EXTD=WAN YEAR: 2000
EXTT0=
EXTT1=
EXTT2=
EXTT3=
EXTT4=
EXTT5=
EXTT6=
EXTT7=
EXTT8=
EXTT9=
EXTT10=
EXTT11=
EXTT12=
EXTT13=
EXTT14=
PLAYORDER=
